<?xml version="1.0" encoding="utf-8"?>
<!-- Generator: Adobe Illustrator 15.0.2, SVG Export Plug-In  -->
<!DOCTYPE svg PUBLIC "-//W3C//DTD SVG 1.1//EN" "http://www.w3.org/Graphics/SVG/1.1/DTD/svg11.dtd" [
	<!ENTITY ns_flows "http://ns.adobe.com/Flows/1.0/">
]>
<svg version="1.1"
	 xmlns="http://www.w3.org/2000/svg" xmlns:xlink="http://www.w3.org/1999/xlink" xmlns:a="http://ns.adobe.com/AdobeSVGViewerExtensions/3.0/"
	 x="0px" y="0px" width="176px" height="47px" viewBox="0 0 176 47" enable-background="new 0 0 176 47" xml:space="preserve">
<defs>
</defs>
<path fill="#231F20" d="M40.142,17.724v-6.32L34.657,8.24l-0.293,0.163l-4.623,2.672l-4.191-2.418V3.163L20.063,0l-0.292,0.166
	l-5.178,2.998v5.494l-4.206,2.418L5.487,8.24L5.178,8.403l-5.178,3v6.32l4.9,2.832v4.753L0,28.141v6.321l5.487,3.162l4.791-2.769
	l4.314,2.49v5.503l5.47,3.157l5.487-3.157v-5.503l4.314-2.49l4.793,2.769l5.485-3.162v-6.321l-4.915-2.832v-4.753L40.142,17.724
	 M38.986,33.799c-0.477,0.273-3.852,2.217-4.329,2.492c-0.479-0.275-3.837-2.219-4.316-2.492c0-0.562,0-3.758,0-3.758H29.17v3.872
	l-4.068,2.352l-3.482-1.999l-0.57,0.999c0,0,2.85,1.642,3.344,1.926c0,0.551,0,4.437,0,4.988c-0.479,0.275-3.853,2.222-4.331,2.497
	c-0.477-0.275-3.836-2.222-4.314-2.497c0-0.552,0-4.438,0-4.988c0.479-0.284,3.282-1.9,3.282-1.9l-0.585-1.001l-3.405,1.976
	l-4.1-2.352v-3.872H9.801c0,0,0,3.196,0,3.758c-0.494,0.273-3.837,2.217-4.314,2.492c-0.494-0.275-3.853-2.219-4.331-2.492
	c0-0.556,0-4.439,0-4.991c0.479-0.279,3.837-2.217,4.331-2.492c0.492,0.284,3.436,1.992,3.436,1.992l0.585-1.004l-3.452-1.986V20.55
	l3.39-1.953L8.86,17.595c0,0-2.882,1.676-3.374,1.959c-0.494-0.276-3.853-2.218-4.331-2.496c0-0.553,0-4.437,0-4.99
	c0.479-0.274,3.837-2.217,4.331-2.497c0.477,0.28,3.821,2.223,4.314,2.497c0,0.565,0,3.892,0,3.892h1.139v-3.872l4.084-2.348
	l3.467,2.001l0.57-1.002c0,0-2.635-1.527-3.252-1.887c0-0.017-0.015-0.036-0.015-0.055L15.748,8.78c0-0.676,0-4.41,0-4.952
	c0.479-0.276,3.837-2.215,4.314-2.496c0.479,0.281,3.853,2.22,4.331,2.496c0,0.554,0,4.438,0,4.99
	c-0.494,0.281-3.299,1.897-3.299,1.897l0.572,1.001l3.436-1.978l4.068,2.348v3.872h1.171c0,0,0-3.326,0-3.892
	c0.479-0.274,3.837-2.217,4.316-2.497c0.477,0.28,3.852,2.223,4.329,2.497c0,0.554,0,4.438,0,4.99
	c-0.477,0.278-3.852,2.22-4.329,2.496c-0.494-0.283-3.391-1.959-3.391-1.959l-0.57,1.002l3.375,1.953v4.768l-3.437,1.986l0.57,1.004
	c0,0,2.958-1.708,3.452-1.992c0.477,0.275,3.852,2.213,4.329,2.492C38.986,29.359,38.986,33.243,38.986,33.799z"/>
<path fill="#008555" d="M13.822,17.825c0.324,0,0.57-0.258,0.57-0.577c0,0,0-1.272,0-1.962c0.262,0,1.171,0,2.358,0v1.962
	c0,0.319,0.262,0.577,0.585,0.577c0.308,0,0.57-0.258,0.57-0.577v-1.962c1.371,0,2.927,0,4.314,0v1.962
	c0,0.319,0.262,0.577,0.585,0.577c0.308,0,0.57-0.258,0.57-0.577v-1.962c1.202,0,2.096,0,2.373,0c0,0.689,0,1.962,0,1.962
	c0,0.319,0.247,0.577,0.57,0.577c0.323,0,0.57-0.258,0.57-0.577v-2.54c0-0.318-0.247-0.574-0.57-0.574h-5.687V13.35
	c0-0.317-0.262-0.575-0.57-0.575c-0.322,0-0.585,0.258-0.585,0.575v0.784h-5.655c-0.323,0-0.585,0.256-0.585,0.574v2.54
	C13.237,17.567,13.499,17.825,13.822,17.825"/>
<path fill="#008555" d="M18.044,21.156c0.139,0.214,0.432,0.27,0.647,0.128c0-0.009,0.6-0.412,1.387-0.86
	c0.4,0.256,0.832,0.545,1.263,0.866c0.202,0.157,0.479,0.121,0.647-0.081c0.155-0.198,0.124-0.49-0.077-0.646
	c-0.309-0.233-0.616-0.449-0.924-0.647c0.294-0.136,0.556-0.265,0.817-0.376c0.215-0.102,0.338-0.373,0.247-0.609
	c-0.093-0.236-0.385-0.342-0.617-0.242c-0.447,0.189-0.909,0.427-1.356,0.665c-0.771-0.449-1.356-0.723-1.402-0.737
	c-0.232-0.108-0.509-0.002-0.617,0.229c-0.107,0.233,0,0.508,0.232,0.613c0,0,0.354,0.162,0.862,0.438
	c-0.554,0.336-0.954,0.601-0.986,0.62C17.953,20.661,17.906,20.947,18.044,21.156"/>
<path fill="#008555" d="M18.029,23.906c0.139,0.212,0.432,0.262,0.632,0.12c0.015-0.006,0.523-0.361,1.248-0.75
	c0.494,0.266,1.017,0.592,1.511,0.967c0.184,0.156,0.492,0.117,0.647-0.081c0.154-0.202,0.124-0.494-0.078-0.647
	c-0.354-0.265-0.692-0.506-1.063-0.717c0.292-0.111,0.554-0.21,0.832-0.287c0.247-0.072,0.385-0.328,0.309-0.575
	c-0.062-0.243-0.34-0.385-0.57-0.313c-0.54,0.158-1.094,0.381-1.572,0.615c-0.724-0.362-1.263-0.563-1.31-0.581
	c-0.231-0.089-0.508,0.035-0.585,0.274c-0.093,0.237,0.03,0.503,0.262,0.593c0.015,0.005,0.247,0.094,0.615,0.258
	c-0.445,0.262-0.739,0.465-0.771,0.482C17.936,23.414,17.875,23.698,18.029,23.906"/>
<path fill="#008555" d="M16.273,23.938c0.322,0,0.569-0.259,0.569-0.577c0-0.32-0.247-0.579-0.569-0.579c0,0-1.496,0-2.22,0
	c0-0.129,0-0.303,0-0.503h2.22c0.322,0,0.569-0.259,0.569-0.578c0-0.317-0.247-0.573-0.569-0.573h-2.22c0-0.137,0-0.27,0-0.4h2.22
	c0.322,0,0.569-0.259,0.569-0.578c0-0.321-0.247-0.58-0.569-0.58h-2.22c0-0.367,0-0.611,0-0.611c0-0.319-0.278-0.581-0.57-0.581
	c-0.338,0-0.601,0.262-0.601,0.581v4.403c0,0.318,0.262,0.577,0.601,0.577H16.273"/>
<path fill="#008555" d="M26.643,18.377c-0.308,0-0.57,0.262-0.57,0.581c0,0,0,0.244,0,0.611h-2.218c-0.309,0-0.57,0.259-0.57,0.58
	c0,0.319,0.262,0.578,0.57,0.578h2.218c0,0.131,0,0.264,0,0.4h-2.218c-0.309,0-0.57,0.256-0.57,0.573
	c0,0.319,0.262,0.578,0.57,0.578h2.218c0,0.2,0,0.374,0,0.501c-0.724,0-2.218,0-2.218,0c-0.309,0-0.57,0.261-0.57,0.581
	c0,0.318,0.262,0.577,0.57,0.577h2.788c0.324,0,0.585-0.259,0.585-0.577v-4.403C27.229,18.639,26.967,18.377,26.643,18.377"/>
<path fill="#008555" d="M26.29,24.854H13.775c-0.322,0-0.569,0.259-0.569,0.578v3.261c0,0.319,0.247,0.577,0.569,0.577
	c0.34,0,0.587-0.258,0.587-0.577c0,0,0-1.9,0-2.683c1,0,10.355,0,11.355,0c0,0.782,0,2.683,0,2.683c0,0.319,0.247,0.577,0.572,0.577
	c0.322,0,0.584-0.258,0.584-0.577v-3.261C26.874,25.112,26.612,24.854,26.29,24.854"/>
<path fill="#008555" d="M24.409,27.565c-0.324,0-0.585,0.256-0.585,0.578c0,0,0,0.746,0,1.297c-0.4,0-1.741,0-3.19,0V28.92h1.881
	c0.262,0,0.462-0.201,0.462-0.46v-1.448c0-0.254-0.2-0.464-0.462-0.464h-4.917c-0.262,0-0.462,0.21-0.462,0.464v1.448
	c0,0.259,0.2,0.46,0.462,0.46h1.879c0,0.14,0,0.319,0,0.521c-1.433,0-2.758,0-3.174,0c0-0.551,0-1.297,0-1.297
	c0-0.322-0.262-0.578-0.57-0.578c-0.323,0-0.585,0.256-0.585,0.578v1.877c0,0.318,0.262,0.579,0.585,0.579h3.744
	c0,0.443,0,0.86,0,1.132c-0.847,0-3.544,0-3.544,0c-0.308,0-0.57,0.256-0.57,0.574c0,0.319,0.262,0.578,0.57,0.578h4.129
	c0.309,0,0.57-0.259,0.57-0.578V30.6h3.776c0.309,0,0.57-0.261,0.57-0.579v-1.877C24.979,27.821,24.717,27.565,24.409,27.565
	 M18.044,27.473c0.694,0,3.314,0,4.007,0c0,0.226,0,0.298,0,0.526c-0.693,0-3.313,0-4.007,0
	C18.044,27.771,18.044,27.698,18.044,27.473z"/>
<path fill="#231F20" d="M56.152,37.711c0.217,0,0.94,0.035,1.419,0.035c0.045,0,0.185,0.092,0.2,0.122
	c0.139,0.168,0.4,0.456,0.786,0.902c0.462,0.56,2.281,2.447,2.773,2.971c0.046,0.047,0.077-0.039,0.077-0.057
	c0.046-0.271,0.017-1.32,0.017-2.104c0-0.313-0.032-0.754-0.047-0.996c-0.03-0.184-0.123-0.4-0.585-0.522
	c-0.185-0.043-0.308-0.098-0.308-0.212c0-0.064,0.108-0.112,0.277-0.112c0.231,0,0.447,0.009,0.632,0.009
	c0.447,0,0.832-0.047,1.064-0.047c0.168,0,0.245,0.054,0.245,0.123c0,0.053-0.077,0.142-0.245,0.184
	c-0.494,0.16-0.54,0.328-0.585,0.7c-0.032,0.336-0.093,2.689-0.093,3.48c0,0.389,0.062,1.21,0.062,1.454
	c0,0.081-0.106,0.175-0.153,0.175c-0.185,0-0.417-0.24-0.494-0.354c-0.185-0.229-0.354-0.446-0.615-0.754
	c-0.864-1.069-2.39-2.669-3.206-3.647c-0.046-0.056-0.108,0.02-0.108,0.045c-0.015,0.252-0.031,0.467-0.046,1.203
	c0,1.292-0.03,1.999,0.015,2.454c0.046,0.301,0.14,0.46,0.585,0.599c0.202,0.055,0.262,0.12,0.262,0.175
	c0,0.105-0.122,0.142-0.307,0.142c-0.262,0-0.479-0.036-0.802-0.036c-0.2,0-0.724,0.023-0.877,0.023
	c-0.138,0-0.247-0.045-0.247-0.117c0-0.095,0.108-0.142,0.2-0.167c0.432-0.131,0.647-0.206,0.679-0.906
	c0.045-1.039,0.168-2.827,0.168-3.498c0-0.37-0.03-0.48-0.062-0.522c-0.17-0.204-0.23-0.334-0.709-0.447
	c-0.108-0.017-0.247-0.09-0.247-0.156C55.875,37.777,55.983,37.711,56.152,37.711"/>
<path fill="#231F20" d="M65.382,38.734c-0.03-0.448-0.03-0.587-0.477-0.698c-0.231-0.054-0.293-0.12-0.293-0.187
	c0-0.072,0.139-0.129,0.309-0.129c0.262,0,0.74,0.025,1.064,0.025c0.447,0,0.771-0.025,1.094-0.025c0.153,0,0.292,0.036,0.292,0.129
	c0,0.084-0.139,0.158-0.292,0.187c-0.462,0.083-0.494,0.328-0.509,0.569c-0.032,0.231-0.032,0.555-0.032,2.156
	c0,1.127,0,1.53,0.015,1.811c0.047,0.548,0.093,0.659,0.617,0.799c0.17,0.034,0.262,0.101,0.262,0.195
	c0,0.091-0.168,0.119-0.292,0.119c-0.37,0-1.002-0.056-1.388-0.045c-0.262,0-0.554,0.023-0.894,0.023
	c-0.215,0-0.277-0.063-0.277-0.154c0-0.065,0.077-0.13,0.262-0.18c0.432-0.099,0.494-0.295,0.524-0.695
	c0.015-0.354,0.046-1.312,0.046-2.106C65.414,40.055,65.414,39.087,65.382,38.734"/>
<path fill="#231F20" d="M70.207,38.734c-0.017-0.448-0.017-0.587-0.494-0.698c-0.217-0.054-0.277-0.12-0.277-0.187
	c0-0.072,0.139-0.129,0.307-0.129c0.277,0,0.755,0.025,1.064,0.025c0.462,0,0.785-0.025,1.109-0.025
	c0.153,0,0.293,0.036,0.293,0.129c0,0.084-0.14,0.158-0.293,0.187c-0.462,0.083-0.494,0.328-0.509,0.569
	c-0.03,0.231-0.045,0.555-0.045,2.156c0,1.127,0.015,1.53,0.03,1.811c0.046,0.548,0.092,0.659,0.617,0.799
	c0.168,0.034,0.262,0.101,0.262,0.195c0,0.091-0.17,0.119-0.293,0.119c-0.37,0-1-0.056-1.386-0.045
	c-0.293,0-0.572,0.023-0.911,0.023c-0.23,0-0.292-0.063-0.292-0.154c0-0.065,0.092-0.13,0.277-0.18
	c0.432-0.099,0.508-0.295,0.523-0.695c0.032-0.354,0.062-1.312,0.062-2.106C70.252,40.055,70.252,39.087,70.207,38.734"/>
<path fill="#231F20" d="M79.436,37.786c0.156,0.036,0.34,0.065,0.418,0.072c0.045,0,0.106,0.085,0.123,0.216
	c0,0.27,0.139,0.745,0.139,1.118c0,0.12-0.063,0.229-0.17,0.229c-0.047,0-0.107-0.101-0.17-0.239
	c-0.061-0.177-0.216-0.477-0.369-0.652c-0.186-0.241-0.725-0.633-1.479-0.633c-1.402,0-2.234,1.256-2.234,2.706
	c0,0.654,0.123,1.21,0.386,1.678c0.399,0.717,1.141,1.209,1.973,1.209c0.123,0,0.385-0.046,0.568-0.186
	c0.123-0.073,0.217-0.336,0.217-0.651c0-0.325-0.016-0.717-0.031-0.828c-0.063-0.217-0.139-0.4-0.754-0.457
	c-0.139-0.006-0.279-0.094-0.279-0.175c0-0.066,0.141-0.132,0.324-0.132c0.355,0,0.863,0.036,1.125,0.036
	c0.215,0,0.725-0.055,1.079-0.055c0.169,0,0.245,0.066,0.245,0.142c0,0.054-0.106,0.139-0.215,0.178
	c-0.309,0.082-0.309,0.192-0.324,0.322c-0.014,0.112-0.046,0.773-0.046,1.155c0,0.129,0.032,0.169,0.155,0.28
	c0.062,0.054,0.092,0.093,0.092,0.156c0,0.048-0.063,0.12-0.139,0.139c-0.154,0.048-0.477,0.132-0.848,0.204
	c-0.4,0.088-1.141,0.189-1.387,0.189c-1.001,0-1.927-0.309-2.497-0.811c-0.415-0.411-0.939-1.088-0.939-2.317
	c0-0.951,0.385-1.685,1.016-2.244c0.602-0.521,1.542-0.846,2.499-0.846C78.559,37.591,79.082,37.693,79.436,37.786"/>
<path fill="#231F20" d="M85.539,37.796c0.093,0.223,0.246,0.699,0.369,1.041c0.523,1.441,1.172,3.129,1.356,3.592
	c0.294,0.754,0.509,0.848,0.817,0.942c0.168,0.044,0.246,0.101,0.246,0.167c0,0.063-0.094,0.139-0.309,0.139
	c-0.231,0-0.926-0.036-1.217-0.036c-0.324,0-0.662,0.017-0.924,0.017c-0.186,0-0.309-0.056-0.309-0.139
	c0-0.047,0.076-0.122,0.245-0.158c0.386-0.093,0.401-0.24,0.386-0.392c-0.016-0.24-0.216-0.764-0.432-1.36
	c-0.015-0.032-0.123-0.14-0.23-0.14c-0.986-0.009-1.418,0.02-1.557,0.028c-0.03,0-0.094,0.066-0.108,0.096
	c-0.292,0.741-0.4,1.161-0.4,1.35c0,0.187,0.093,0.317,0.446,0.409c0.186,0.045,0.263,0.101,0.263,0.187
	c0,0.072-0.124,0.119-0.276,0.119c-0.171,0-0.402-0.017-0.741-0.017c-0.368,0-0.785,0.036-0.924,0.036
	c-0.216,0-0.262-0.058-0.262-0.11c0-0.066,0.03-0.132,0.229-0.187c0.465-0.129,0.57-0.278,0.85-0.827
	c0.215-0.449,1.216-3.102,1.617-4.022c0-0.02,0.047-0.13,0.047-0.166c0-0.03-0.017-0.057,0.016-0.078
	c0.123-0.129,0.415-0.476,0.477-0.575c0.062-0.084,0.123-0.12,0.17-0.12C85.43,37.591,85.461,37.609,85.539,37.796 M85.553,40.95
	c-0.123-0.439-0.538-1.563-0.676-1.869c-0.016-0.065-0.078-0.049-0.094,0.026c-0.169,0.446-0.615,1.619-0.662,1.843
	c-0.016,0.046,0.015,0.093,0.062,0.093c0.354-0.009,1.049-0.02,1.341-0.02C85.523,41.023,85.57,40.985,85.553,40.95z"/>
<path fill="#231F20" d="M98.914,37.796c0.093,0.223,0.263,0.699,0.369,1.041c0.51,1.441,1.141,3.129,1.326,3.592
	c0.309,0.754,0.523,0.848,0.832,0.942c0.154,0.044,0.247,0.101,0.247,0.167c0,0.063-0.093,0.139-0.309,0.139
	c-0.231,0-0.925-0.036-1.218-0.036c-0.309,0-0.677,0.017-0.908,0.017c-0.186,0-0.309-0.056-0.309-0.139
	c0-0.047,0.076-0.122,0.246-0.158c0.386-0.093,0.386-0.24,0.371-0.392c-0.018-0.24-0.217-0.764-0.418-1.36
	c-0.014-0.032-0.123-0.14-0.23-0.14c-0.986-0.009-1.434,0.02-1.557,0.028c-0.03,0-0.076,0.066-0.107,0.096
	c-0.293,0.741-0.401,1.161-0.401,1.35c0,0.187,0.093,0.317,0.447,0.409c0.185,0.045,0.263,0.101,0.263,0.187
	c0,0.072-0.14,0.119-0.277,0.119c-0.17,0-0.4-0.017-0.739-0.017c-0.37,0-0.787,0.036-0.926,0.036c-0.216,0-0.262-0.058-0.262-0.11
	c0-0.066,0.032-0.132,0.231-0.187c0.478-0.129,0.57-0.278,0.832-0.827c0.23-0.449,1.232-3.102,1.633-4.022
	c0-0.02,0.031-0.13,0.031-0.166c0-0.03,0-0.057,0.031-0.078c0.123-0.129,0.415-0.476,0.479-0.575c0.06-0.084,0.123-0.12,0.168-0.12
	C98.807,37.591,98.837,37.609,98.914,37.796 M98.93,40.95c-0.139-0.439-0.54-1.563-0.678-1.869
	c-0.016-0.065-0.078-0.049-0.092,0.026c-0.171,0.446-0.617,1.619-0.68,1.843c0,0.046,0.031,0.093,0.078,0.093
	c0.354-0.009,1.048-0.02,1.34-0.02C98.898,41.023,98.945,40.985,98.93,40.95z"/>
<path fill="#231F20" d="M107.714,37.711c0.4,0,0.754,0.035,1.094,0.035c0.339,0,0.862-0.035,1.063-0.035
	c0.185,0,0.278,0.066,0.278,0.139c0,0.077-0.108,0.149-0.293,0.187c-0.324,0.063-0.432,0.178-0.494,0.537
	c-0.047,0.311-0.029,1.206-0.029,2.515c0,1.082,0.215,1.407,0.508,1.722c0.262,0.262,0.877,0.412,1.14,0.412
	c0.647,0,1.401-0.207,1.634-1.222c0.123-0.493,0.186-1.273,0.186-2.559c0-0.604-0.031-0.8-0.047-0.902
	c-0.029-0.281-0.186-0.428-0.617-0.533c-0.092-0.023-0.262-0.099-0.262-0.184c0-0.054,0.109-0.111,0.262-0.111
	c0.232,0,0.555,0.035,0.863,0.035c0.371,0,0.602-0.035,0.863-0.035c0.141,0,0.232,0.066,0.232,0.139
	c0,0.058-0.125,0.133-0.248,0.156c-0.461,0.113-0.6,0.292-0.6,0.878c0,0.435-0.063,1.544-0.078,2.03
	c-0.061,1.57-0.539,2.213-1.201,2.596c-0.417,0.239-0.909,0.287-1.264,0.287c-0.863,0-1.465-0.287-1.773-0.565
	c-0.523-0.485-0.738-1.045-0.738-2.534c0-0.7-0.032-2.149-0.032-2.261c-0.03-0.179-0.122-0.343-0.462-0.418
	c-0.107-0.029-0.262-0.092-0.262-0.181C107.436,37.769,107.559,37.711,107.714,37.711"/>
<path fill="#231F20" d="M116.066,37.711c0.199,0,0.938,0.035,1.416,0.035c0.047,0,0.17,0.092,0.201,0.122
	c0.139,0.168,0.4,0.456,0.801,0.902c0.447,0.56,2.266,2.447,2.758,2.971c0.047,0.047,0.094-0.039,0.094-0.057
	c0.045-0.271,0.016-1.32,0.016-2.104c0-0.313-0.031-0.754-0.063-0.996c-0.016-0.184-0.109-0.4-0.57-0.522
	c-0.186-0.043-0.309-0.098-0.309-0.212c0-0.064,0.107-0.112,0.279-0.112c0.229,0,0.43,0.009,0.631,0.009
	c0.432,0,0.816-0.047,1.063-0.047c0.154,0,0.217,0.054,0.217,0.123c0,0.053-0.063,0.142-0.232,0.184
	c-0.479,0.16-0.523,0.328-0.57,0.7c-0.031,0.336-0.092,2.689-0.092,3.48c0,0.389,0.047,1.21,0.047,1.454
	c0,0.081-0.092,0.175-0.139,0.175c-0.201,0-0.416-0.24-0.51-0.354c-0.168-0.229-0.354-0.446-0.6-0.754
	c-0.879-1.069-2.404-2.669-3.221-3.647c-0.063-0.056-0.109,0.02-0.109,0.045c-0.014,0.252-0.045,0.467-0.045,1.203
	c-0.016,1.292-0.031,1.999,0.014,2.454c0.047,0.301,0.141,0.46,0.588,0.599c0.199,0.055,0.262,0.12,0.262,0.175
	c0,0.105-0.139,0.142-0.309,0.142c-0.262,0-0.477-0.036-0.816-0.036c-0.201,0-0.709,0.023-0.879,0.023
	c-0.125,0-0.23-0.045-0.23-0.117c0-0.095,0.105-0.142,0.199-0.167c0.432-0.131,0.646-0.206,0.678-0.906
	c0.047-1.039,0.17-2.827,0.17-3.498c0-0.37-0.029-0.48-0.063-0.522c-0.168-0.204-0.23-0.334-0.709-0.447
	c-0.105-0.017-0.246-0.09-0.246-0.156C115.787,37.777,115.896,37.711,116.066,37.711"/>
<path fill="#231F20" d="M125.297,38.734c-0.031-0.448-0.031-0.587-0.494-0.698c-0.217-0.054-0.277-0.12-0.277-0.187
	c0-0.072,0.139-0.129,0.293-0.129c0.277,0,0.756,0.025,1.063,0.025c0.463,0,0.787-0.025,1.109-0.025c0.17,0,0.309,0.036,0.309,0.129
	c0,0.084-0.139,0.158-0.309,0.187c-0.461,0.083-0.492,0.328-0.508,0.569c-0.031,0.231-0.047,0.555-0.047,2.156
	c0,1.127,0.016,1.53,0.031,1.811c0.045,0.548,0.092,0.659,0.633,0.799c0.168,0.034,0.262,0.101,0.262,0.195
	c0,0.091-0.201,0.119-0.309,0.119c-0.371,0-1.002-0.056-1.387-0.045c-0.277,0-0.557,0.023-0.895,0.023
	c-0.23,0-0.293-0.063-0.293-0.154c0-0.065,0.092-0.13,0.277-0.18c0.432-0.099,0.494-0.295,0.51-0.695
	c0.031-0.354,0.061-1.312,0.061-2.106C125.326,40.055,125.326,39.087,125.297,38.734"/>
<path fill="#231F20" d="M129.303,37.702c0.186,0,0.646,0.045,1.109,0.045c0.309,0,0.893-0.018,1.094-0.018
	c0.123,0,0.23,0.048,0.23,0.111c0,0.076-0.078,0.148-0.23,0.195c-0.416,0.111-0.416,0.241-0.34,0.503
	c0.139,0.457,1.141,2.932,1.357,3.388c0.014,0.029,0.076,0.029,0.076,0c0.076-0.147,1.064-2.447,1.34-3.184
	c0.201-0.547-0.045-0.583-0.414-0.725c-0.094-0.035-0.203-0.102-0.203-0.158c0-0.063,0.109-0.14,0.248-0.14
	c0.293,0,0.479,0.026,0.785,0.026c0.279,0,0.648-0.036,0.863-0.036c0.154,0,0.277,0.058,0.277,0.13c0,0.086-0.092,0.148-0.262,0.178
	c-0.43,0.101-0.615,0.298-0.848,0.779c-0.215,0.46-0.785,1.583-1.34,2.962c-0.309,0.735-0.51,1.256-0.693,1.825
	c-0.047,0.101-0.17,0.242-0.264,0.242c-0.092,0-0.184-0.163-0.199-0.226c-0.045-0.205-0.215-0.744-0.477-1.424
	c-0.324-0.846-1.033-2.559-1.389-3.407c-0.199-0.437-0.338-0.641-0.754-0.763c-0.107-0.024-0.246-0.064-0.246-0.167
	C129.025,37.757,129.164,37.702,129.303,37.702"/>
<path fill="#231F20" d="M140.352,37.746c0.291,0,0.676-0.035,0.801-0.056c0.045-0.009,0.107,0.056,0.123,0.12
	c0,0.172,0,0.814,0,0.996c0,0.134-0.063,0.264-0.139,0.264c-0.092,0-0.168-0.14-0.186-0.233c-0.107-0.522-0.369-0.659-0.586-0.7
	c-0.184-0.025-0.584-0.063-1.293-0.052c-0.047,0-0.109,0.034-0.123,0.259c-0.016,0.229-0.047,1.524-0.031,2.036
	c0,0.031,0.031,0.095,0.092,0.095h0.738c0.664,0,0.633-0.038,0.818-0.446c0.061-0.141,0.123-0.242,0.199-0.242
	c0.078,0,0.109,0.158,0.094,0.261c-0.016,0.261-0.031,0.428-0.031,0.643c0,0.251,0.016,0.398,0.031,0.634
	c0.016,0.165-0.047,0.276-0.123,0.276s-0.139-0.111-0.17-0.204c-0.123-0.41-0.246-0.473-0.602-0.503
	c-0.293-0.025-0.646-0.025-0.939-0.025c-0.031,0-0.107,0.09-0.107,0.109c-0.047,0.262-0.031,0.989-0.031,1.294
	c0.016,0.225,0,0.569,0.047,0.765c0.029,0.085,0.107,0.202,0.199,0.223c0.154,0.027,0.432,0.055,0.756,0.055
	c0.277,0,0.615,0,0.848-0.081c0.277-0.104,0.539-0.325,0.74-0.691c0.121-0.24,0.215-0.325,0.291-0.325
	c0.094,0,0.078,0.196,0.078,0.27c0,0.074-0.277,0.931-0.369,1.081c-0.018,0.063-0.17,0.12-0.217,0.12
	c-0.107,0-2.402-0.045-3.098-0.045c-0.617,0-0.709,0.045-1.047,0.045c-0.186,0-0.324-0.03-0.324-0.12
	c0-0.085,0.123-0.15,0.277-0.186c0.477-0.112,0.602-0.206,0.633-0.707c0.029-0.392,0.076-1.097,0.076-2.256
	c0-1.099,0.016-1.526,0-1.792c-0.031-0.339-0.107-0.525-0.494-0.598c-0.199-0.038-0.309-0.075-0.309-0.169
	c0-0.081,0.172-0.14,0.295-0.14c0.432,0,1.201,0.027,1.68,0.027H140.352"/>
<path fill="#231F20" d="M147.918,40.402c-0.047,0.025-0.232,0.129-0.371,0.192c-0.047,0.021-0.029,0.096-0.016,0.132
	c0.17,0.371,0.939,1.659,1.402,2.197c0.248,0.298,0.525,0.408,0.801,0.465c0.094,0.017,0.17,0.092,0.17,0.13
	c0,0.057-0.092,0.122-0.154,0.139c-0.139,0.057-0.492,0.076-0.615,0.076c-0.848,0-1.217-0.337-1.402-0.604
	c-0.262-0.355-0.74-1.12-1.125-1.788c-0.092-0.14-0.23-0.343-0.309-0.391c-0.061-0.057-0.262-0.122-0.445-0.122
	c-0.033,0-0.094,0.05-0.094,0.095c-0.016,0.187,0,1.424,0.031,1.851c0.016,0.4,0.092,0.494,0.508,0.606
	c0.17,0.044,0.23,0.11,0.23,0.176c0,0.102-0.168,0.141-0.291,0.141c-0.326,0-0.727-0.056-1.188-0.056
	c-0.324,0-0.785,0.036-0.895,0.036c-0.23,0-0.309-0.066-0.309-0.15c0-0.055,0.123-0.111,0.232-0.146
	c0.432-0.129,0.539-0.242,0.57-0.54c0.047-0.717,0.047-1.499,0.047-2.289c0-0.997-0.018-1.789-0.047-2.039
	c-0.016-0.223-0.109-0.364-0.541-0.467c-0.123-0.037-0.23-0.102-0.23-0.176c0-0.066,0.107-0.132,0.262-0.132c0.295,0,0.494,0,0.68,0
	c0.354,0,1.125-0.044,1.617-0.044c0.432,0,1.172,0.036,1.619,0.409c0.291,0.231,0.508,0.681,0.508,1.109
	C148.564,39.714,148.318,40.074,147.918,40.402 M147.008,38.334c-0.217-0.221-0.492-0.326-0.756-0.326
	c-0.031,0-0.275,0.028-0.354,0.067c-0.045,0.027-0.092,0.147-0.107,0.193c-0.031,0.317-0.063,1.947-0.031,2.188
	c0.014,0.055,0.076,0.113,0.123,0.113c0.479,0,0.908-0.142,1.002-0.205c0.262-0.187,0.523-0.521,0.523-1.043
	C147.408,39.081,147.332,38.659,147.008,38.334z"/>
<path fill="#231F20" d="M154.697,37.746c0.047,0.007,0.123,0.143,0.123,0.188c0,0.121,0.094,0.837,0.094,0.873
	c0,0.144-0.033,0.235-0.078,0.235c-0.078,0-0.23-0.085-0.277-0.223c-0.092-0.309-0.277-0.57-0.4-0.662
	c-0.215-0.188-0.447-0.26-0.74-0.26c-0.432,0-0.939,0.36-0.939,0.967c0,0.549,0.4,0.849,1.232,1.378
	c1.156,0.698,1.371,1.293,1.371,1.86c0,0.484-0.277,1.043-0.816,1.369c-0.309,0.192-0.848,0.334-1.295,0.334
	c-0.555,0-0.971-0.092-1.355-0.24c-0.063-0.041-0.246-0.235-0.246-0.271c-0.063-0.325-0.141-0.725-0.141-0.994
	c0-0.068,0.094-0.197,0.141-0.197c0.061,0,0.23,0.223,0.369,0.515c0.277,0.565,0.816,0.854,1.295,0.854
	c0.432,0,0.969-0.335,0.969-0.932c0-0.39-0.197-0.761-1.063-1.322c-0.939-0.623-1.447-1.135-1.447-1.963
	c0-0.529,0.262-0.978,0.57-1.219c0.307-0.259,0.74-0.448,1.479-0.448C153.957,37.588,154.451,37.699,154.697,37.746"/>
<path fill="#231F20" d="M158.119,38.734c-0.018-0.448-0.018-0.587-0.479-0.698c-0.215-0.054-0.277-0.12-0.277-0.187
	c0-0.072,0.123-0.129,0.293-0.129c0.277,0,0.754,0.025,1.063,0.025c0.463,0,0.801-0.025,1.125-0.025
	c0.154,0,0.277,0.036,0.277,0.129c0,0.084-0.123,0.158-0.277,0.187c-0.479,0.083-0.508,0.328-0.508,0.569
	c-0.047,0.231-0.063,0.555-0.063,2.156c0,1.127,0.016,1.53,0.031,1.811c0.031,0.548,0.107,0.659,0.631,0.799
	c0.172,0.034,0.264,0.101,0.264,0.195c0,0.091-0.186,0.119-0.295,0.119c-0.385,0-1.016-0.056-1.4-0.045
	c-0.279,0-0.555,0.023-0.895,0.023c-0.23,0-0.293-0.063-0.293-0.154c0-0.065,0.076-0.13,0.277-0.18
	c0.432-0.099,0.494-0.295,0.508-0.695c0.031-0.354,0.047-1.312,0.047-2.106C158.148,40.055,158.148,39.087,158.119,38.734"/>
<path fill="#231F20" d="M169.291,37.702c0.23,0,0.785,0.055,1.201,0.055c0.262,0,0.539-0.02,0.91-0.02
	c0.152,0,0.23,0.049,0.23,0.104c0,0.066-0.078,0.167-0.217,0.195c-0.309,0.066-0.34,0.214-0.217,0.461
	c0.125,0.2,0.68,1.168,1.08,1.848c0.016,0.027,0.094,0.012,0.123-0.028c0.139-0.233,0.785-1.263,1.018-1.721
	c0.17-0.288,0.154-0.477-0.277-0.568c-0.139-0.028-0.246-0.11-0.246-0.205c0-0.065,0.123-0.093,0.199-0.093
	c0.232,0,0.416,0.018,0.633,0.018c0.262,0,0.955-0.045,1.094-0.045s0.215,0.019,0.215,0.101c0,0.086-0.092,0.152-0.246,0.196
	c-0.447,0.114-0.646,0.345-0.955,0.716c-0.385,0.486-0.939,1.368-1.232,1.816c-0.031,0.063-0.125,0.28-0.125,0.503
	c0,0.521,0.033,1.538,0.063,1.84c0.031,0.247,0.094,0.363,0.602,0.497c0.168,0.044,0.23,0.109,0.23,0.176
	c0,0.072-0.092,0.13-0.277,0.13c-0.139,0-0.816-0.047-1.031-0.047c-0.602,0-1.219,0.066-1.342,0.066c-0.139,0-0.23-0.039-0.23-0.111
	c0-0.059,0.061-0.15,0.262-0.196c0.492-0.138,0.584-0.287,0.602-0.429c0.029-0.427,0.016-1.452,0.016-1.797
	c0-0.092-0.063-0.4-0.092-0.454c-0.156-0.319-0.711-1.201-1.111-1.851c-0.4-0.653-0.586-0.783-0.877-0.859
	c-0.17-0.035-0.279-0.102-0.279-0.187C169.012,37.737,169.135,37.702,169.291,37.702"/>
<path fill="#231F20" d="M94.66,37.669v-0.004c0-0.08-0.061-0.141-0.123-0.138c-0.092,0-0.23,0.121-0.43,0.166
	c-0.016,0.003-0.032,0.003-0.032,0.006l-0.015,0.003c-0.031,0.009-0.063,0.017-0.108,0.021c-0.185,0.017-1.294,0.051-1.941,0.054
	c-0.662-0.003-1.757-0.037-1.958-0.054c-0.029-0.005-0.076-0.013-0.106-0.021c-0.015-0.006-0.032-0.006-0.032-0.009
	c-0.199-0.045-0.338-0.166-0.43-0.166c-0.063-0.003-0.109,0.058-0.123,0.138v0.004c-0.016,0.464-0.171,1.028-0.171,1.198
	c0,0.092,0.047,0.204,0.139,0.204c0.046,0,0.093-0.056,0.2-0.242c0.123-0.224,0.231-0.388,0.325-0.495
	c0.106-0.12,0.354-0.214,0.507-0.214c0.2,0,0.879,0.01,1.049,0.04c0.03,0,0.107,0.045,0.107,0.129c0,0.244,0,0.56,0,1.09
	c0,0.707-0.045,2.521-0.077,3.069c-0.03,0.653-0.077,0.773-0.677,0.923c-0.094,0.025-0.202,0.109-0.202,0.195
	c0,0.074,0.108,0.11,0.278,0.11s0.877-0.058,1.171-0.058c0.276,0,1.003,0.058,1.155,0.058c0.186,0,0.294-0.036,0.294-0.11
	c0-0.086-0.108-0.17-0.202-0.195c-0.615-0.149-0.646-0.27-0.677-0.923c-0.047-0.548-0.093-2.362-0.093-3.069
	c0-0.53,0.016-0.846,0.016-1.09c0-0.084,0.077-0.129,0.092-0.129c0.186-0.03,0.848-0.04,1.048-0.04c0.155,0,0.417,0.094,0.524,0.214
	c0.092,0.107,0.186,0.271,0.309,0.495c0.123,0.187,0.184,0.242,0.23,0.242c0.077,0,0.123-0.112,0.123-0.204
	C94.83,38.697,94.676,38.133,94.66,37.669"/>
<path fill="#231F20" d="M167.518,37.669l-0.031-0.003c0-0.081-0.029-0.142-0.107-0.139c-0.092,0-0.23,0.121-0.432,0.166
	c-0.016,0.003-0.016,0.003-0.029,0.006c0,0.003,0,0.003,0,0.003c-0.031,0.009-0.078,0.017-0.109,0.021
	c-0.199,0.017-1.293,0.051-1.955,0.054c-0.648-0.003-1.758-0.037-1.959-0.054c-0.031-0.005-0.061-0.013-0.107-0.021v-0.003
	c-0.016-0.003-0.016-0.003-0.031-0.006c-0.199-0.045-0.338-0.166-0.432-0.166c-0.045-0.003-0.107,0.058-0.107,0.138v0.004
	c-0.031,0.464-0.184,1.028-0.184,1.198c0,0.092,0.061,0.204,0.152,0.204c0.031,0,0.094-0.056,0.201-0.242
	c0.123-0.224,0.215-0.388,0.309-0.495c0.107-0.12,0.369-0.214,0.508-0.214c0.215,0,0.879,0.01,1.063,0.04
	c0.018,0,0.094,0.045,0.094,0.129c0,0.244,0.016,0.56,0.016,1.09c0,0.707-0.047,2.521-0.092,3.069
	c-0.033,0.653-0.063,0.773-0.68,0.923c-0.092,0.025-0.199,0.109-0.199,0.195c0,0.074,0.107,0.11,0.293,0.11
	c0.152,0,0.861-0.058,1.156-0.058c0.291,0,1,0.058,1.17,0.058c0.168,0,0.277-0.036,0.277-0.11c0-0.086-0.109-0.17-0.201-0.195
	c-0.6-0.149-0.646-0.27-0.678-0.923c-0.031-0.548-0.092-2.362-0.092-3.069c0-0.53,0.016-0.846,0.016-1.09
	c0-0.084,0.076-0.129,0.107-0.129c0.17-0.03,0.848-0.04,1.047-0.04c0.156,0,0.402,0.094,0.51,0.214
	c0.092,0.107,0.199,0.271,0.338,0.495c0.109,0.187,0.139,0.242,0.201,0.242c0.092,0,0.123-0.112,0.123-0.204
	C167.672,38.697,167.518,38.133,167.518,37.669"/>
<path fill-rule="evenodd" clip-rule="evenodd" fill="#231F20" d="M71.64,18.168c-0.37,0.07-2.558,0.29-2.743,0.212
	c-0.185-0.069-0.909,0-1.403,0c-0.477,0-0.771-0.262-0.817-0.454c-0.045-0.192,0.108-0.604,0.108-0.604l0.108-0.119
	c0,0,0.415-0.123,0.647-0.075c0.247,0.05,0.292,0.147,0.554,0.075c0.263-0.075,0.849,0.048,1.188-0.051
	c0.338-0.094,0.585-0.437,0.785-0.673c0.185-0.244,0.339-0.772,0.309-0.992c-0.015-0.215-0.4-0.287-0.708-0.337
	c-0.309-0.048-1.033-0.025-1.033-0.025s-0.046-0.073,0-0.262c0.047-0.197,0.17-0.82,0.293-1.157c0.107-0.34,0.107-0.605,0.107-0.773
	c0-0.167,0.032-0.34,0.2-0.361c0.17-0.024,0.34,0.048,0.602,0.048s0.462-0.026,0.569-0.171c0.123-0.142,0.572-0.408,0.725-0.528
	c0.139-0.12,0.015-0.313,0.215-0.604c0.185-0.289,0.047-0.626-0.107-0.843c-0.14-0.217-1.049-0.195-1.696-0.29
	c-0.616-0.099-1.326-0.121-1.726-0.121c-0.416,0-0.724-0.17-1.063-0.051c-0.34,0.123-2.02,0.364-2.528,0.388
	c-0.508,0.026-1.462,0.219-1.926,0.339c-0.477,0.12-2.865,0.724-2.958,0.724c-0.092,0-0.186,0.193-0.23,0.386
	c-0.047,0.192-0.17,0.552-0.417,0.724c-0.247,0.166-0.338,0.241-0.6,0.7c-0.262,0.459,0.2,0.94,0.477,1.083
	c0.293,0.147,0.508,0.389,0.725,0.389c0.215,0,0.477-0.146,0.771-0.411c0.292-0.265,0.677-0.457,0.986-0.481
	c0.323-0.024,0.6,0.192,0.6,0.192s0,0.214-0.015,0.459c-0.03,0.241-0.046,1.205-0.046,1.205s-0.554-0.073-0.754-0.048
	c-0.202,0.024-0.987,0.361-1.203,0.361c-0.215,0-0.293,0.434-0.338,0.793c-0.046,0.364-0.463,0.851-0.402,1.232
	c0.047,0.386,0.664,0.723,1.079,0.746c0.415,0.024,0.987-0.505,1.511-0.866c0.492-0.364,1.371-0.437,1.648-0.481
	c0.293-0.049,1.232-0.337,1.232-0.337s0.108,0.262,0.078,0.602c-0.032,0.337,0.03,0.749,0.03,0.749s-2.42,0.288-2.958,0.434
	c-0.524,0.142-3.005,0.724-3.452,0.817c-0.431,0.098-1.586,0.339-1.756,0.601c-0.155,0.27-0.323,0.654-0.432,1.33
	c-0.092,0.676-0.015,0.846,0.463,1.18c0.477,0.339,1.294,0,1.571-0.214c0.262-0.22,0.539-0.629,0.924-0.824
	c0.385-0.192,1.479-0.527,1.479-0.527s0.14,0.266,0.232,0.527c0.092,0.268-0.139,1.354-0.262,1.837
	c-0.124,0.48-0.139,1.156,0.138,1.76c0.293,0.604,0.956,0.531,1.449,0.36c0.477-0.168,0.477-0.771,0.554-1.086
	c0.062-0.311,0.232-0.939,0.385-1.448c0.139-0.504,0.047-1.011-0.077-1.253c-0.124-0.239-0.293-1.079-0.293-1.079
	s0.093-0.103,0.417-0.195c0.309-0.098,0.956-0.22,1.202-0.244c0.247-0.022,0.416-0.24,0.416-0.24s-0.062,1.615,0,2.242
	c0.046,0.629-0.292,1.689-0.447,2.101c-0.139,0.407-0.215,1.107-0.047,1.976c0.17,0.868,0.555,0.896,0.679,0.966
	c0.124,0.077,0.354,0,0.601,0.025c0.247,0.021,0.385,0.021,0.755-0.123c0.355-0.142,0.4-0.575,0.447-0.94
	c0.047-0.359,0.032-1.398-0.015-2.22c-0.046-0.821,0-1.519,0.047-1.687c0.045-0.17,0.092-0.291,0-0.872
	C66.4,21.083,66.8,20.41,66.8,20.41s0.262,0.504,0.432,0.891s0.338,1.254,0.432,1.69c0.092,0.433,0.585,1.013,0.848,1.203
	c0.262,0.194,1.124,0.244,1.572,0.266c0.445,0.023,0.445-0.626,0.416-0.87c-0.047-0.237-0.585-1.324-0.832-1.711
	c-0.247-0.386-0.432-0.796-0.309-0.938c0.124-0.146,0.447,0.045,0.971,0.123c0.508,0.069,0.679-0.27,0.847-0.388
	c0.17-0.124,0.479-0.775,0.508-1.018c0.017-0.241,0.017-0.673,0.14-0.891c0.122-0.214,0.215-0.701,0.215-0.701
	S71.993,18.091,71.64,18.168 M66.276,12.788c-0.045,0.17-0.045,0.99-0.077,1.399c-0.032,0.409-0.077,0.628-0.124,0.723
	c-0.046,0.096-0.092,0.17-0.771,0.215c-0.679,0.047-1.248,0.125-1.248,0.125s-0.078-0.244-0.093-0.507
	c-0.03-0.266,0-1.523-0.03-1.713c-0.032-0.194,0.03-0.242,0.292-0.339c0.262-0.099,0.602-0.145,0.987-0.145s0.894,0.046,0.894,0.046
	S66.323,12.619,66.276,12.788z"/>
<path fill-rule="evenodd" clip-rule="evenodd" fill="#231F20" d="M62.979,10.184c0.477,0.144,1.048-0.266,1.294-0.458
	c0.247-0.194,0.986-0.459,1.248-0.484c0.262-0.022,1.295,0.05,1.743,0.098c0.43,0.048,0.662-0.072,0.815-0.217
	c0.139-0.145,0.062-0.34,0.17-0.509c0.092-0.165,0.262-0.409,0.524-0.724c0.262-0.312,0.432-0.748,0.432-0.748
	s-0.262-0.022-0.523-0.192c-0.262-0.165-1.526-0.072-2.235-0.165c-0.724-0.1-2.481,0.045-2.805,0.093
	c-0.308,0.048-0.555,0.389-0.862,0.846c-0.324,0.458-0.786,1.132-0.786,1.496C61.994,9.58,62.486,10.037,62.979,10.184"/>
<path fill-rule="evenodd" clip-rule="evenodd" fill="#231F20" d="M77.48,6.371c-0.262,0.024-0.402,0.292-0.603,0.413
	c-0.185,0.12-0.354,0.165-0.339,0.357c0.03,0.196,0.432,1.015,0.262,1.327c-0.168,0.313-0.477,1.015-1.094,1.257
	c-0.632,0.239-1.094,0.48-1.094,0.48s-0.509-0.313-0.862-0.313c-0.355,0-0.679,0.117-0.94,0.242
	c-0.262,0.122-0.462,0.265-0.647,0.554c-0.2,0.289-0.262,0.748-0.17,1.254c0.093,0.504,0.679,2.17,0.647,3.183
	c-0.015,1.013,0.077,3.719-0.292,4.49c-0.355,0.771-0.432,1.468-0.787,1.588c-0.369,0.123-0.431,0.051-0.584,0.098
	c-0.14,0.047-0.449,0.047-0.355,0.506c0.062,0.459,0.262,1.569,0.617,1.811c0.369,0.237,1.063,0.577,1.433,0.554
	c0.354-0.024,0.939-0.268,1.294-1.301c0.355-1.038,0.093-1.183,0.185-1.691c0.107-0.502,0.277-1.131,0.323-1.879
	c0.047-0.747-0.03-1.013,0.092-1.471c0.124-0.46,0.309-0.507,0.555-0.484c0.247,0.024,0.694-0.095,0.941-0.142
	c0.245-0.051,0.724-0.194,0.862-0.1c0.153,0.1,0.308,0.196,0.354,0.434c0.016,0.242,0.386,2.364,0.416,3.112
	c0.029,0.746,0.123,2.27,0.076,2.896s-0.029,1.205,0,1.614c0.018,0.411-0.153,1.185-0.245,1.569
	c-0.093,0.386-0.123,0.747-0.017,1.159c0.094,0.408,0.355,1.3,1.049,1.201c0.725-0.097,1.156-0.311,1.171-0.601
	c0.03-0.288-0.046-0.796,0.062-1.206c0.092-0.41,0.154-0.797,0.092-1.203c-0.076-0.411-0.123-0.825-0.045-1.354
	c0.061-0.53,0.061-0.963,0.045-1.399c-0.029-0.434,0.094-1.806,0.047-2.339c-0.047-0.529-0.246-1.155-0.215-1.469
	c0.015-0.315,0.139-0.794,0.168-1.038c0.016-0.241,0-0.942,0.17-1.18c0.154-0.242,0.23-0.291,0.23-0.291s1.064,0.387,1.496,0.506
	c0.43,0.12,0.709,0.387,1.186-0.146c0.479-0.53,0.602-1.013,0.941-1.396c0.338-0.387,0.215-0.628,0.385-0.967
	c0.17-0.34,0.709-0.604,0.894-0.771c0.153-0.17,0.062-0.314-0.231-0.314c-0.277,0-1.203,0.192-1.711,0.364
	c-0.492,0.168-1.463,0.217-2.28,0.168c-0.817-0.051-2.142-0.098-3.05-0.023c-0.895,0.072-1.896,0.288-2.528,0.409
	c-0.617,0.12-0.741,0.192-0.786,0c-0.047-0.192-0.124-1.015-0.153-1.472c-0.017-0.458-0.17-0.892,0.077-1.084
	c0.245-0.195,0.554-0.242,0.847-0.242c0.277,0,0.354,0.119,0.815-0.051c0.449-0.167,0.818-0.336,0.988-0.36
	c0.168-0.022,0.4-0.36,0.57-0.337c0.17,0.024,0.939,0.145,1.139,0.071c0.232-0.071,0.756-0.58,0.926-0.748
	c0.17-0.167,0.432-0.745,0.477-1.132c0.063-0.385-0.106-0.942-0.492-1.35c-0.401-0.411-0.802-0.943-1.188-1.137
	c-0.385-0.193-0.631-0.313-0.738-0.457C77.771,6.396,77.742,6.348,77.48,6.371"/>
<path fill-rule="evenodd" clip-rule="evenodd" fill="#231F20" d="M106.141,8.636c0,0-0.229,0.725-0.432,0.893
	c-0.184,0.169-0.323,0.675-0.23,0.845c0.092,0.167,0.4,0.531,1.125,0.242c0.725-0.291,0.849-0.389,1.125-0.34
	c0.293,0.049,0.801,0.023,1.018-0.023c0.215-0.049,0.354-0.072,0.354-0.072s0.339,0.7,0.339,0.965c0,0.267-0.092,0.747-0.092,0.747
	s-1.247-0.096-1.588-0.096c-0.339,0-1.032,0.168-1.494,0.142c-0.462-0.021-0.632,0.052-0.632,0.052s-0.016,0.265-0.047,0.387
	c-0.016,0.12-0.184,0.409-0.139,0.698c0.047,0.289,0.139,0.409,0.417,0.409c0.262,0,0.862-0.048,1.079-0.143
	c0.215-0.099,0.785-0.146,1.201-0.171c0.4-0.023,1.188,0.072,1.279,0.242c0.093,0.169,0.061,0.508,0.061,0.508
	s0.047,0.965-0.152,0.938c-0.232-0.026-1.88-0.098-2.297-0.048c-0.417,0.048-2.018,0.169-2.758,0.146
	c-0.756-0.023-1.557-0.124-2.065-0.124s-0.879,0-0.971,0c-0.093,0-0.262-0.071-0.215-0.238c0.045-0.17-0.093-0.265,0.03-0.385
	c0.123-0.121,0.215-0.217,0.6-0.193c0.386,0.022,0.832-0.096,0.832-0.096s0.263-0.245,0.524-0.726
	c0.262-0.483,0.37-0.676,0.34-0.868c-0.015-0.192-0.294-0.217-0.523-0.167c-0.262,0.045-0.879,0.167-1.155,0.117
	c-0.262-0.045-0.479,0.1-0.57-0.045c-0.094-0.147-0.17-0.581-0.077-0.846c0.106-0.265,0.122-0.434,0.386-0.412
	C101.674,11,102.921,11,103.137,11s0.77-0.048,0.893-0.192c0.124-0.147,0.479-0.46,0.786-0.676c0.325-0.218,0.493-0.385,0.493-0.651
	s0.094-0.53-0.215-0.749c-0.323-0.216-0.54-0.193-0.54-0.193s-0.247,0.363-1.294,0.437c-1.078,0.071-1.803,0.047-2.188,0.097
	c-0.386,0.045-0.386,0.045-0.386,0.045s-0.646-0.095-0.893-0.237c-0.23-0.147-0.263-0.269-0.478-0.171
	c-0.216,0.096-0.787,0.698-1.032,0.82c-0.247,0.121,0.047,0.289,0.092,0.481c0.047,0.193,0.262,0.217,0.323,0.434
	c0.047,0.217,0.062,0.894,0.062,1.474c0,0.579-0.123,1.085-0.062,1.325c0.047,0.241,0.231,1.109,0.185,1.59
	c-0.046,0.482-0.092,0.894-0.138,1.597c-0.047,0.694,0.015,0.961-0.047,1.37c-0.077,0.411-0.368,1.065-0.556,1.376
	c-0.198,0.313-0.322,0.746-0.215,0.921c0.094,0.164,0.523,0.646,0.879,0.674c0.37,0.021,0.986-0.075,1.186-0.268
	c0.186-0.195,0.648-0.65,0.91-0.746c0.277-0.1,3.251-0.386,3.651-0.41c0.417-0.023,1.063,0,1.249-0.023
	c0.2-0.025,0.617-0.1,1.002-0.147c0.385-0.047,0.477-0.047,0.785-0.024c0.308,0.024,1.895-0.072,2.542,0
	c0.664,0.072,1.464,0.268,1.726,0.409c0.277,0.146,0.4,0.196,0.4,0.196s-0.275,1.422-0.538,2.073c-0.262,0.65-0.4,1.83-1.265,2.025
	c-0.847,0.191-1.447,0.146-1.709,0.12c-0.262-0.023-1.557-0.265-1.926-0.385c-0.355-0.122-0.694-0.29-0.694-0.29
	s-0.077,0.651-0.123,0.847c-0.047,0.192,0.092,0.792,0.138,1.012c0.047,0.217,0.447,0.532,0.941,0.577
	c0.508,0.049,1.032,0.122,1.541,0.628c0.508,0.507,0.677,0.844,1.077,0.868c0.417,0.025,1.357-0.072,1.758-0.361
	c0.386-0.289,1.556-1.18,2.05-2.099c0.477-0.917,1.031-2.074,1.201-2.678c0.17-0.602,0.17-0.602,0.262-0.868
	s0.201-0.554-0.045-0.988c-0.248-0.437-0.633-1.327-1.033-1.711c-0.416-0.386-0.77-0.655-1.418-0.748
	c-0.646-0.1-2.02-0.244-2.343-0.313c-0.308-0.075-0.785,0.095-1.079,0.095c-0.291,0-2.788,0.026-3.773,0.146
	c-0.988,0.117-4.038,0.481-4.038,0.481s-0.108-0.746-0.062-1.064c0.045-0.31,0.108-0.41,0.262-0.43
	c0.154-0.025,1.388-0.291,1.773-0.314c0.4-0.022,2.649,0.142,3.174,0.142c0.523,0,0.847-0.069,1.217-0.069
	c0.385,0,1.447,0,1.57,0.069c0.124,0.075,0.309,0.508,0.648,0.58c0.34,0.074,0.586,0.147,0.77,0.121
	c0.155-0.022,0.449-0.193,0.664-0.701c0.215-0.503,0.2-0.964,0.2-1.496c0-0.527-0.093-1.156,0.015-1.541
	c0.108-0.389,0.108-0.818,0.077-1.09c-0.015-0.26,0.077-0.743,0.077-1.175c0-0.437,0.217-0.751,0.355-1.112
	c0.152-0.359-0.109-0.963-0.524-1.303c-0.433-0.338-0.679-0.53-0.833-0.458c-0.123,0.072-0.925,0.145-1.278,0.242
	c-0.339,0.095-1.68,0.095-2.05,0.071c-0.354-0.023-0.646-0.023-0.832-0.049C106.265,8.588,106.141,8.636,106.141,8.636"/>
<path fill-rule="evenodd" clip-rule="evenodd" fill="#231F20" d="M106.696,20.307c0.046,0.268,0.509,0.58,0.601,0.704
	c0.108,0.12,0.309,0.721,0.339,0.938c0.031,0.218,0.202,0.701,0.602,0.894c0.415,0.192,0.524,0.359,0.632,0.241
	c0.092-0.119,0.184-0.292,0.4-0.411c0.215-0.12,0.371-0.457,0.385-0.674c0.031-0.22-0.385-0.94-0.602-1.207
	c-0.215-0.264-0.307-0.576-0.83-0.798c-0.541-0.214-0.679-0.192-0.879-0.142C107.158,19.898,106.65,20.044,106.696,20.307"/>
<path fill-rule="evenodd" clip-rule="evenodd" fill="#231F20" d="M103.861,19.898c-0.123,0.146-0.217,0.361-0.139,0.556
	c0.061,0.192,0.492,1.063,0.555,1.302c0.029,0.242,0.446,0.747,0.662,0.868c0.217,0.12,0.293,0.29,0.725-0.024
	c0.431-0.313,0.633-0.457,0.554-0.749c-0.077-0.291-0.339-0.984-0.431-1.276c-0.093-0.286-0.555-0.359-0.678-0.553
	c-0.124-0.193-0.386-0.221-0.739-0.193C104,19.852,103.984,19.756,103.861,19.898"/>
<path fill-rule="evenodd" clip-rule="evenodd" fill="#231F20" d="M100.671,20.237c-0.046,0.167,0.015,0.359,0.169,0.677
	c0.14,0.312,0.34,0.914,0.432,1.252c0.094,0.337,0.447,0.65,0.679,0.675c0.216,0.026,0.493,0.072,0.662,0
	c0.185-0.071,0.524-0.289,0.479-0.605c-0.046-0.31-0.078-0.385-0.294-0.963c-0.229-0.581-0.538-0.868-0.662-1.013
	c-0.123-0.146-0.293-0.166-0.508-0.166s-0.479,0.121-0.647,0.095C100.81,20.165,100.718,20.067,100.671,20.237"/>
<path fill-rule="evenodd" clip-rule="evenodd" fill="#231F20" d="M96.789,20.574c-0.047,0.162-0.124,0.265,0.092,0.483
	c0.215,0.215,0.508,0.554,0.709,0.963c0.185,0.41,0.399,0.869,0.616,0.988c0.216,0.12,0.415,0.175,0.554,0.291
	c0.154,0.12,0.633,0.12,0.817-0.314c0.2-0.434,0.2-0.603,0.106-0.892c-0.106-0.29-0.461-0.894-0.77-1.11
	c-0.322-0.214-0.893-0.387-1.217-0.434C97.389,20.499,96.834,20.404,96.789,20.574"/>
<path fill-rule="evenodd" clip-rule="evenodd" fill="#231F20" d="M96.726,19.828c0,0-0.771,0.36-1.478,0.481
	c-0.711,0.12-1.572,0.266-2.005,0.385c-0.446,0.124-0.755,0.222-0.985,0.192c-0.247-0.021-0.803,0.072-0.803,0.072
	s-0.123,0.698-0.184,0.967c-0.078,0.265-0.416,1.063-0.369,1.327c0.045,0.265,0.076,0.868,0.338,0.966
	c0.262,0.095,0.986,0.553,1.418-0.024c0.432-0.58,0.369-0.702,0.847-1.011c0.479-0.316,0.617-0.175,1.171-0.486
	c0.525-0.313,0.771-0.651,0.957-0.916c0.199-0.265,0.369-0.242,0.554-0.65C96.387,20.719,96.726,19.828,96.726,19.828"/>
<path fill-rule="evenodd" clip-rule="evenodd" fill="#231F20" d="M91.209,14.497c0,0,0,0.338-0.169,0.625
	c-0.17,0.29-0.616,0.775-0.603,1.234c0.032,0.457,0.032,0.964,0.279,1.011c0.23,0.047,0.477,0.362,0.662,0.294
	c0.199-0.075,1.279-0.678,1.756-0.656c0.494,0.023,1.156,0.17,1.541-0.049c0.402-0.218,0.895-0.626,1.049-0.963
	c0.17-0.338,0.37-0.581,0.23-0.746c-0.154-0.17-1.078-0.628-1.957-0.75c-0.863-0.123-1.602-0.023-2.064-0.048
	C91.473,14.426,91.209,14.497,91.209,14.497"/>
<path fill-rule="evenodd" clip-rule="evenodd" fill="#231F20" d="M94.152,12.229c-0.431,0.047-0.431,0.164-0.909,0.047
	c-0.493-0.12-0.709-0.265-0.894-0.626c-0.201-0.361-0.247-0.461-0.092-0.798c0.139-0.337,0.523-1.083,0.816-1.446
	c0.277-0.362,0.615-0.771,0.924-0.698c0.324,0.072,0.941,0.291,1.418,0.601c0.479,0.314,1.355,0.412,1.635,0.581
	c0.291,0.17,0.724,0.554,0.894,1.061c0.169,0.508,0.153,0.676,0,0.748c-0.14,0.072-0.987,0.217-1.419,0.339
	c-0.431,0.119-0.893,0.095-1.447,0.145C94.508,12.229,94.6,12.182,94.152,12.229"/>
<path fill-rule="evenodd" clip-rule="evenodd" fill="#231F20" d="M129.732,7.761c0.123-0.239,0.68-0.508,1.018-0.53
	c0.34-0.022,1.096,0,1.217,0.17c0.123,0.167,0.586,0.238,0.586,0.723c0,0.481-0.199,0.602-0.139,0.746
	c0.047,0.145-0.168,0.269-0.199,0.411c-0.031,0.145,0.123,1.279,0.092,1.566c-0.016,0.292,0.047,1.592,0.154,1.928
	c0.092,0.339,0.17,0.531,0.17,0.531s1.604-0.117,2.559-0.072c0.939,0.051,1.664,0.051,2.109,0.072
	c0.463,0.028,1.65-0.045,2.436-0.454c0.801-0.413,1.094-0.557,1.217-0.581c0.109-0.022,0.262-0.241,0.309-0.12
	c0.047,0.12,0.016,0.265,0.076,0.388c0.047,0.117,0.387,0.483,0.557,0.723c0.152,0.24,0.414,0.481,0.369,0.698
	c-0.016,0.217-0.047,0.437-0.309,0.506c-0.262,0.075-1.217,0.747-1.418,0.916c-0.199,0.17-0.631,0.533-0.816,0.628
	c-0.199,0.099-0.477,0.24-0.756,0.192c-0.262-0.048-0.523-0.167-0.832-0.313c-0.322-0.145-0.893-0.382-1.662-0.481
	c-0.771-0.095-1.234-0.171-1.773-0.218c-0.523-0.045-1.293-0.095-1.465-0.022c-0.17,0.069-0.385,0.192-0.215,0.31
	c0.154,0.123,0.787,0.943,0.986,1.14c0.199,0.19,1.941,1.926,2.852,2.579c0.908,0.648,2.004,1.374,2.742,1.808
	c0.74,0.435,1.373,0.675,1.758,0.747s1.926,0.266,2.418,0.483c0.508,0.217,1.525,0.265,1.787,0.241
	c0.262-0.024,0.91-0.291,0.91-0.291s-0.047,0.242-0.047,0.387s0.047,0.217-0.17,0.434c-0.215,0.218-0.307,0.339-0.398,0.65
	c-0.109,0.318,0,0.868-0.756,1.014c-0.74,0.146-1.512,0.292-1.758,0.386c-0.262,0.099-0.586,0-0.801,0s-0.17-0.144-0.416-0.144
	c-0.23,0-0.4,0-0.678,0.194c-0.262,0.191-0.447,0.481-1.002,0.409s-0.986-0.388-1.311-0.649c-0.309-0.266-2.373-2.606-3.02-3.354
	c-0.662-0.751-2.02-1.855-2.281-2.195c-0.277-0.336-1.525-2.194-1.525-2.363c0-0.171-0.139-0.171-0.23,0.021
	c-0.109,0.192-0.51,2.223-0.709,2.607c-0.186,0.387-1.033,2.269-2.449,3.111c-1.418,0.844-3.221,1.472-3.621,1.715
	c-0.418,0.238-1.912,0.673-2.697,0.554c-0.803-0.122-1.111-0.194-1.402-0.438c-0.293-0.239-0.34-0.842-0.355-1.396
	c-0.029-0.557-0.076-0.966,0.047-1.207c0.123-0.242,0.385-0.435,0.492-0.675c0.123-0.242,0.031-0.652,0.201-0.82
	c0.17-0.172,0.262-0.146,0.477-0.024c0.217,0.12,0.463,0.145,0.557,0.386c0.105,0.24,0.291,0.746,0.414,0.892
	c0.125,0.145,0.727,0.266,1.08,0.193s2.049-0.725,2.605-1.037c0.568-0.313,0.584-0.289,1-0.533c0.4-0.24,1.711-1.322,2.141-2.555
	c0.432-1.229,0.525-1.711,0.494-2.05c-0.016-0.337-0.016-0.337-0.016-0.337s-0.432,0-0.57,0.048c-0.152,0.049-0.199,0-0.416,0.049
	c-0.215,0.051-1.078,0.216-1.277,0.216c-0.186,0-2.234,0.171-2.896,0.338c-0.68,0.17-1.326,0.315-1.758,0.606
	c-0.432,0.284-0.725,0.6-1.402,0.262c-0.678-0.336-0.555-0.843-0.479-0.963c0.078-0.122,0.078-0.363,0.139-0.508
	c0.078-0.146,0.277-0.218,0.371-0.409c0.092-0.195-0.078-0.484,0.047-0.653c0.123-0.168,0.508-0.242,0.785-0.357
	c0.291-0.124,0.77-0.605,0.939-0.605s0.709,0.074,0.893,0.219c0.203,0.143,0.941,0.359,1.279,0.335
	c0.34-0.025,2.852-0.385,3.453-0.41c0.6-0.023,0.879,0,1.018-0.19c0.137-0.195,0.168-0.846,0.137-1.4
	c-0.014-0.554-0.262-1.445-0.309-1.957c-0.045-0.502-0.123-1.205-0.17-1.469c-0.045-0.265-0.262-0.337-0.307-0.457
	C129.764,7.931,129.611,8.003,129.732,7.761"/>
<path fill-rule="evenodd" clip-rule="evenodd" fill="#231F20" d="M164.451,1.11c-0.139,0-0.354,0.048-0.447,0.12
	c-0.107,0.072-0.215,0.291-0.262,0.436c-0.063,0.146-0.123,0.362-0.338,0.313c-0.217-0.047-0.51-0.265-0.803-0.359
	c-0.293-0.098-0.43-0.098-0.6,0.047c-0.172,0.146-0.355,0.433-0.295,0.604c0.078,0.168,0.031,0.701-0.045,0.821
	c-0.076,0.119,0.248,0.192,0.293,0.312c0.047,0.12,0.139,0.313,0.031,0.506c-0.123,0.192-0.494,0.505-0.725,0.63
	c-0.246,0.121-0.555,0.434-0.416,0.914c0.154,0.484,0.262,0.557,0.893,0.579c0.617,0.024,0.818,0.024,0.941,0.048
	c0.123,0.027,0.832-0.335,1.063-0.554c0.217-0.218,0.063-0.24,0.309-0.218s0.215,0.195,0.477,0.218
	c0.262,0.024,0.385,0.098,0.555,0.049c0.172-0.049,0.295-0.316,0.387-0.289c0.092,0.022,0.477,0.045,0.6-0.219
	c0.123-0.266,0.141-0.555,0.248-0.676c0.092-0.118,0.137-0.072,0.354,0c0.217,0.074,0.354,0.219,0.678,0.147
	c0.324-0.073,0.416-0.168,0.588-0.099c0.168,0.072,0.414,0.17,0.414,0.17s-0.123,0.385-0.152,0.604
	c-0.018,0.218-0.156,0.796-0.156,0.796s-1.34,0.143-1.555,0.098c-0.217-0.051-0.557-0.075-0.756-0.098
	c-0.186-0.025-0.215-0.192-0.34-0.098c-0.123,0.098-0.123,0.098-0.137,0.292c-0.033,0.192-0.264,0.192-0.201,0.457
	c0.076,0.265,0.246,0.698,0.539,0.675c0.293-0.026,0.895-0.026,1.248-0.096c0.354-0.072,1.172,0.049,1.172,0.049
	s-0.186,0.286-0.141,0.432c0.018,0.146,0.094,0.554-0.076,0.626c-0.168,0.072-0.338,0.173-0.662,0.122
	c-0.324-0.05-0.895,0.051-1.248-0.022c-0.369-0.072-0.494,0-0.832-0.122c-0.324-0.122-0.402-0.122-0.432,0.05
	c-0.016,0.165,0.154,0.722,0.324,0.918c0.17,0.192,0.17,0.385,0.445,0.312c0.293-0.077,0.801-0.098,1.033-0.119
	c0.246-0.027,1.232,0.14,1.232,0.14s0,0.314-0.17,0.509c-0.139,0.192-0.262,0.676-0.262,0.676s-2.604-0.098-3.482-0.027
	c-0.895,0.075-3.236,0-3.93,0.075c-0.723,0.069-1.494,0.121-1.725,0.121c-0.248,0-0.371-0.196-0.34-0.361
	c0.031-0.169,0.248-0.359,0.463-0.483c0.217-0.122,1.125-0.218,1.326-0.335c0.229-0.121,0.338-0.217,0.367-0.341
	c0.031-0.12,0.047-0.361,0.078-0.604c0.016-0.239,0.063-0.385-0.17-0.456c-0.246-0.073-0.385-0.096-0.738-0.288
	c-0.355-0.193-0.416-0.316-0.416-0.316s-0.063,0.097-0.154,0.22c-0.109,0.12-0.541,0.239-0.633,0.262
	c-0.092,0.027-0.199,0.027-0.293-0.117c-0.092-0.145-0.123-0.557-0.029-0.798c0.107-0.24,0.447-0.409,0.615-0.434
	c0.154-0.023,0.479-0.048,0.77-0.193c0.279-0.144,0.709-0.288,0.771-0.58c0.076-0.289,0.154-0.648,0.123-0.771
	c-0.016-0.122-0.063-0.528-0.291-0.48c-0.201,0.049-0.494,0.145-0.68,0.217c-0.199,0.071-0.678,0.045-0.816,0.097
	c-0.154,0.045-0.34,0.167-0.463,0.025c-0.123-0.146-0.307-0.366-0.092-0.654c0.215-0.291,0.4-0.312,0.955-0.434
	c0.57-0.12,0.848-0.097,1.324-0.071c0.447,0.021,0.695-0.12,0.865-0.192c0.168-0.073,0.307-0.025,0.369-0.242
	c0.031-0.217,0.277-0.361,0.416-0.602c0.152-0.242,0.322-0.461,0.061-0.629c-0.275-0.169-0.385-0.217-0.555-0.338
	c-0.168-0.12-0.709,0.022-1.201,0.022c-0.479,0-1.418,0.05-1.803-0.192c-0.385-0.24-0.479-0.359-0.74-0.263
	c-0.277,0.096-0.461,0.407-0.6,0.455c-0.156,0.05,0.105,0.194-0.217,0.244c-0.34,0.047-0.324-0.073-0.51-0.05
	c-0.199,0.024-0.676,0.05-0.877,0.193c-0.186,0.144-0.479,0.507-0.355,0.821c0.125,0.313,0.432,0.771,0.418,1.083
	c-0.031,0.313,0.061,1.159,0.092,1.931c0.014,0.77,0.262,0.846,0.262,1.06c0,0.219,0.123,0.942,0.016,1.449
	c-0.092,0.506-0.016,1.349,0,1.713c0.031,0.359,0.123,1.133,0.123,1.133s-1.264,0.291-1.648,0.313s-1.279,0.146-1.711,0.29
	c-0.447,0.145-0.416,0.215-0.6,0.12c-0.156-0.098-0.709-0.41-1.111-0.481c-0.385-0.072-0.385-0.099-0.477,0.071
	c-0.094,0.17-0.139,0.673-0.232,0.773c-0.107,0.098,0.186,0.218,0.186,0.479c0,0.269,0.186,0.944,0.139,1.521
	c-0.045,0.579,0.076,1.133-0.045,1.447c-0.125,0.313-0.17,0.554-0.047,0.821c0.123,0.263,0.338,1.229,0.955,1.326
	c0.633,0.095,1.279,0.215,1.494,0.12c0.217-0.098,0.479-0.676,0.508-0.991c0.016-0.312,0.047-0.455,0.016-0.697
	c-0.016-0.24,0.078-1.205,0.217-1.518c0.154-0.316,0.168-0.413,0.076-0.58c-0.092-0.17,0.57-0.63,1.711-0.916
	c1.125-0.292,4.068-1.087,6.951-1.207c2.865-0.122,5.283-0.074,6.193,0.12c0.895,0.193,1.957,0.409,2.311,0.506
	c0.371,0.1,0.633,0.218,0.479,0.34c-0.139,0.121-0.479,0.456-0.832,0.697c-0.369,0.239-0.631,0.724-0.801,0.849
	c-0.17,0.12-0.277,0.31-0.047,0.454c0.246,0.144,0.246,0.411,0.555,0.411s0.74-0.025,1.109,0.024
	c0.355,0.048,1.295,0.023,1.496-0.193c0.184-0.217,0.184-0.314,0.57-0.459c0.385-0.146,0.723-0.046,1.016-0.146
	c0.293-0.092,0.955-0.701,1.049-1.035c0.107-0.339-0.063-0.822-0.4-1.255c-0.34-0.436-0.988-1.036-1.449-1.181
	c-0.447-0.147-0.57-0.338-0.74-0.216c-0.168,0.12-0.477,0.19-0.939,0.093c-0.463-0.093-1.926-0.409-1.926-0.409
	s0.076-1.015,0.123-1.546c0.045-0.528,0.092-1.13,0.139-1.467s0.123-0.509,0.215-0.676c0.109-0.172-0.063-0.507,0.031-1.136
	c0.092-0.626,0.17-1.037,0.23-1.324c0.078-0.291,0.293-0.702,0.586-0.87c0.293-0.169,0.461-0.723,0.293-0.94
	c-0.17-0.217-0.662-0.652-1.018-0.748c-0.355-0.097-0.74-0.145-0.908-0.291c-0.17-0.143-0.324-0.387-0.633-0.072
	c-0.309,0.315-0.432,0.267-0.816,0.291c-0.4,0.024-1-0.072-1.139,0.024c-0.156,0.096-0.34,0.36-0.387,0.629
	c-0.061,0.265-0.17,0.771-0.17,0.771s-0.076,0.073-0.215,0.048c-0.154-0.022-0.34-0.29-0.293-0.481
	c0.047-0.192,0.385-0.53,0.523-0.772c0.154-0.242,0.123-0.509-0.016-0.773c-0.154-0.263-0.369-0.479-0.709-0.507
	C165.053,1.303,164.605,1.11,164.451,1.11"/>
<path fill-rule="evenodd" clip-rule="evenodd" fill="#231F20" d="M163.713,5.889c-0.387,0.121-0.586,0.509-0.604,0.676
	c-0.029,0.168-0.246,0.649-0.246,0.649s-0.262,0.045-0.338-0.122c-0.063-0.167-0.016-0.577-0.17-0.626
	c-0.139-0.048-0.709-0.215-0.879-0.048c-0.17,0.172-0.508,0.557-0.754,0.841c-0.23,0.295-0.34,0.656-0.186,0.774
	c0.139,0.123,0.355,0.195,0.463,0.34c0.092,0.147,0.154,0.313,0.154,0.313s-0.186,0.193-0.432,0.556
	c-0.23,0.362-0.34,0.698-0.354,0.891c-0.033,0.192,0.354,0.339,0.523,0.363c0.168,0.023,0.801-0.239,1.094-0.315
	c0.277-0.068,1.047-0.168,1.047-0.168s0.076,0.168,0.418,0.313c0.338,0.146,0.568,0.342,0.77,0.171
	c0.184-0.171,0.523-0.578,0.568-0.87c0.047-0.286,0.031-0.434-0.121-0.551c-0.141-0.124-0.264-0.147-0.402-0.265
	c-0.152-0.124-0.385-0.437-0.307-0.701c0.061-0.266,0.539-0.604,0.738-0.918c0.186-0.311,0.123-0.434,0.17-0.601
	c0.045-0.172,0.045-0.386-0.199-0.557C164.436,5.866,164.098,5.767,163.713,5.889"/>
<path fill-rule="evenodd" clip-rule="evenodd" fill="#231F20" d="M157.025,15.632c-0.063,0.194,0.045,0.313,0.076,0.506
	c0.016,0.192,0.523,0.386,0.678,0.531c0.139,0.145,0.4,0.287,0.77,0.215c0.355-0.07,0.555-0.335,0.693-0.433
	c0.154-0.097,0.662-0.337,0.971-0.36c0.324-0.025,0.879,0.023,1.094,0c0.217-0.025,0.186,0.071,0.309,0.023
	c0.123-0.049,0.523-0.121,0.818-0.049c0.291,0.072,0.631,0.072,0.631,0.072s-0.555,0.289-0.848,0.386
	c-0.293,0.098-0.354,0.315-0.479,0.577c-0.123,0.267-0.338,0.459-0.293,0.773c0.047,0.313,0.385,0.604,0.541,0.819
	c0.139,0.218,0.23,0.337,0.23,0.337s-0.863-0.021-1.51,0.025c-0.662,0.048-1.756,0.194-2.389,0.268
	c-0.617,0.071-1.094,0.311-1.432,0.193c-0.34-0.122-0.51-0.267-0.756-0.294c-0.232-0.021-0.447,0.172-0.664,0.411
	c-0.215,0.242-0.291,0.509-0.416,0.748c-0.123,0.24-0.354,0.894-0.215,1.158s0.139,0.918,0.771,0.845
	c0.631-0.072,0.908-0.121,1.418-0.48c0.508-0.364,1.402-0.653,1.863-0.749c0.447-0.094,1.91-0.387,2.65-0.434
	c0.756-0.045,1.926-0.072,1.926-0.072s0.432,0.795,0.17,2.29c-0.264,1.498-0.525,3.232-1.033,3.786
	c-0.508,0.556-1.463,1.475-2.436,1.688c-0.953,0.217-1.941,0.555-2.68,0.724c-0.756,0.172-1.85,0.22-2.344,0.172
	c-0.477-0.052-0.445-0.145-0.646-0.075c-0.186,0.075-0.291,0.29-0.215,0.46c0.076,0.169,0.17,0.313,0.371,0.746
	c0.184,0.437,0.814,1.231,1.369,1.304c0.557,0.07,0.756-0.05,1.033-0.098c0.262-0.047,0.955-0.116,1.248,0
	c0.293,0.12,0.648-0.288,0.986-0.312c0.354-0.025,1.711-0.434,1.912-0.313c0.215,0.119,0.414,0.53,0.754,0.383
	c0.34-0.144,1.002-0.336,1.232-0.603c0.217-0.265,0.525-0.746,0.602-0.984c0.061-0.246,0.816-1.255,1.094-2.269
	c0.291-1.015,0.879-2.294,0.971-3.234c0.092-0.938,0.047-2.268,0.123-2.674c0.063-0.412,0.186-0.389,0.432-0.22
	c0.248,0.169,1.172,0.22,1.402,0.412c0.248,0.189,0.309,0.526,0.754,0.458c0.434-0.072,0.648-0.316,1.064-0.558
	c0.4-0.24,0.646-0.385,0.693-0.529c0.047-0.142,0.34-0.894,0.309-1.133c-0.016-0.242,0.123-0.508,0.215-0.7
	c0.107-0.194,0.078-0.726,0.078-0.726s-0.215,0.193-0.463,0.364c-0.23,0.167-1.002,0.314-1.633,0.434
	c-0.631,0.12-0.91,0.097-1.402,0.097c-0.494,0-1.326-0.216-1.881-0.316c-0.555-0.093-0.725-0.214-0.971-0.359
	c-0.23-0.145-0.77-0.553-0.77-0.553s0.539-0.509,0.816-0.602c0.291-0.1,0.432-0.316,0.756-0.56c0.307-0.241,0.615-0.458,0.984-0.434
	c0.354,0.025,0.525,0.098,0.787,0.048c0.277-0.048,0.723-0.289,0.723-0.602c0-0.312-0.045-0.578-0.354-0.942
	c-0.309-0.361-0.709-0.554-1.201-0.966c-0.51-0.408-0.51-0.456-0.801-0.479c-0.295-0.027-0.248,0.096-0.51,0.263
	c-0.262,0.171-0.693,0.36-1.34,0.339c-0.648-0.025-2.389-0.096-3.375-0.168c-1.002-0.072-1.633-0.097-2.066,0.189
	C157.795,14.691,157.178,15.22,157.025,15.632"/>
</svg>
