<svg xmlns="http://www.w3.org/2000/svg" width="43.65" height="50.57" viewBox="0 0 43.65 50.57"><defs><style>.cls-1{fill:#fff;}</style></defs><title>アセット 1</title><g id="レイヤー_2" data-name="レイヤー 2"><g id="レイヤー_1-2" data-name="レイヤー 1"><path class="cls-1" d="M43.65,19.48V12.53l-6-3.48-.32.18-5,2.94L27.78,9.52v-6L21.82,0l-.31.18L15.87,3.47v6L11.3,12.18,6,9.06l-.32.18L0,12.53v6.95L5.33,22.6v5.22L0,30.93v7l6,3.47,5.22-3L15.87,41v6l6,3.48,6-3.48V41l4.69-2.74,5.22,3,6-3.47v-7l-5.34-3.11V22.6h0m4.08,14.55-4.7,2.74L33,37.15V33H31.73v4.25L27.3,39.86l-3.77-2.2-.63,1.1,3.62,2.12v5.48l-4.7,2.74-4.7-2.74V40.88l3.57-2.09-.63-1.1-3.72,2.17-4.44-2.59V33H10.66v4.13L6,39.89l-4.7-2.74V31.66L6,28.92l3.75,2.19.63-1.1L6.59,27.82V22.58l3.68-2.14-.63-1.1L6,21.49l-4.7-2.74V13.27L6,10.52l4.7,2.75v4.27h1.25V13.29l4.43-2.58,3.77,2.2.63-1.1L17.19,9.73V9.67l-.05,0V4.21l4.7-2.74,4.7,2.74V9.7L23,11.78l.63,1.1,3.73-2.18,4.43,2.58v4.25H33V13.27l4.7-2.75,4.7,2.75v5.48l-4.7,2.74L34,19.34l-.62,1.1,3.68,2.14v5.24L33.31,30l.63,1.1,3.76-2.19,4.7,2.74Z"/><path class="cls-1" d="M15,19.59a.63.63,0,0,0,.63-.63V16.8h2.57V19a.63.63,0,1,0,1.26,0V16.8h4.69V19a.63.63,0,1,0,1.26,0V16.8H28V19a.63.63,0,1,0,1.26,0V16.17a.63.63,0,0,0-.63-.64H22.45v-.86a.63.63,0,1,0-1.26,0v.86H15a.63.63,0,0,0-.63.64V19a.63.63,0,0,0,.63.63Z"/><path class="cls-1" d="M19.63,23.25a.5.5,0,0,0,.7.14s.66-.45,1.51-.95a15.7,15.7,0,0,1,1.37,1,.5.5,0,0,0,.7-.09.5.5,0,0,0-.09-.71c-.32-.26-.65-.5-1-.71.29-.15.58-.29.87-.41a.52.52,0,0,0,.27-.67.5.5,0,0,0-.66-.27c-.48.21-1,.47-1.47.73-.85-.5-1.49-.79-1.54-.81a.5.5,0,0,0-.66.25.51.51,0,0,0,.25.67s.39.18.94.48c-.61.37-1,.66-1.07.68a.51.51,0,0,0-.14.71Z"/><path class="cls-1" d="M19.61,26.28a.5.5,0,0,0,.7.13s.57-.39,1.36-.82a12,12,0,0,1,1.62,1.06.5.5,0,0,0,.7-.09.51.51,0,0,0-.09-.71,12.45,12.45,0,0,0-1.14-.79,8.52,8.52,0,0,1,.88-.31.51.51,0,0,0,.34-.63.5.5,0,0,0-.62-.34,10.53,10.53,0,0,0-1.7.68c-.79-.4-1.38-.62-1.42-.64a.5.5,0,0,0-.64.3.51.51,0,0,0,.29.65s.27.1.67.28c-.49.29-.81.51-.83.53a.51.51,0,0,0-.13.71Z"/><path class="cls-1" d="M17.7,26.31a.64.64,0,0,0,0-1.27H15.28v-.55H17.7a.63.63,0,0,0,0-1.27H15.28v-.44H17.7a.64.64,0,0,0,0-1.27H15.28v-.67a.63.63,0,1,0-1.25,0v4.84a.63.63,0,0,0,.63.63h0"/><path class="cls-1" d="M29,20.2a.63.63,0,0,0-.62.64v.67H25.95a.64.64,0,0,0,0,1.27h2.42v.44H25.95a.63.63,0,0,0,0,1.27h2.42V25H25.95a.64.64,0,0,0,0,1.27h3a.63.63,0,0,0,.63-.63V20.84A.64.64,0,0,0,29,20.2Z"/><path class="cls-1" d="M28.6,27.32H15a.63.63,0,0,0-.63.63v3.58a.63.63,0,1,0,1.26,0V28.59H28v2.95a.63.63,0,1,0,1.26,0V28a.63.63,0,0,0-.63-.63Z"/><path class="cls-1" d="M26.54,30.3a.63.63,0,0,0-.63.64v1.42H22.45v-.57h2a.51.51,0,0,0,.51-.5V29.69a.51.51,0,0,0-.51-.51H19.13a.51.51,0,0,0-.5.51v1.59a.5.5,0,0,0,.5.5h2.06v.57H17.73V30.93a.63.63,0,1,0-1.26,0V33a.63.63,0,0,0,.63.64h4.09v1.24H17.33a.63.63,0,0,0,0,1.27h4.49a.63.63,0,0,0,.63-.63V33.63h4.09a.63.63,0,0,0,.63-.64V30.93a.63.63,0,0,0-.63-.64Zm-6.91-.1H24v.58H19.64Z"/></g></g></svg>